<svg xmlns="http://www.w3.org/2000/svg" viewBox="0 0 205.26 205.26"><defs><style>.cls-1{fill:#fff;}</style></defs><title>Ativo 1</title><g id="Camada_2" data-name="Camada 2"><g id="Camada_1-2" data-name="Camada 1"><rect x="0.04" y="0.04" width="205.18" height="205.18"/><path class="cls-1" d="M17.79,16.76a8.88,8.88,0,0,1,6.59-2.65c3.57,0,6.18,1.19,7.83,3.55a7.78,7.78,0,0,1,1.47,4H29.2a6.17,6.17,0,0,0-1.1-2.33,4.42,4.42,0,0,0-3.55-1.39,4.38,4.38,0,0,0-3.77,2,9.65,9.65,0,0,0-1.38,5.58,8.47,8.47,0,0,0,1.46,5.4,4.57,4.57,0,0,0,3.71,1.8,4.23,4.23,0,0,0,3.51-1.55,6.94,6.94,0,0,0,1.11-2.48h4.45a9.76,9.76,0,0,1-2.94,5.71,8.58,8.58,0,0,1-6.06,2.19,9.11,9.11,0,0,1-7.2-3q-2.63-3-2.62-8.17Q14.82,19.81,17.79,16.76Z"/><path class="cls-1" d="M43.2,26.31a6.58,6.58,0,0,0,1.66-.37,1.24,1.24,0,0,0,.89-1.17,1.4,1.4,0,0,0-.69-1.35,4.25,4.25,0,0,0-2-.37,2.64,2.64,0,0,0-2.11.73,3.06,3.06,0,0,0-.59,1.45h-4a6,6,0,0,1,1.16-3.41q1.65-2.1,5.67-2.1a10.06,10.06,0,0,1,4.64,1c1.36.69,2,2,2,3.9v7.27q0,.75,0,1.83a2.31,2.31,0,0,0,.25,1.11,1.52,1.52,0,0,0,.61.48V36H46.25a4.45,4.45,0,0,1-.26-.9q-.08-.42-.12-1a8.5,8.5,0,0,1-2,1.58,6.06,6.06,0,0,1-3,.78,5.26,5.26,0,0,1-3.58-1.23,4.37,4.37,0,0,1-1.41-3.48,4.52,4.52,0,0,1,2.27-4.24,10.36,10.36,0,0,1,3.66-1Zm2.54,1.93a4.34,4.34,0,0,1-.81.4,7.18,7.18,0,0,1-1.11.29l-.94.17a6.45,6.45,0,0,0-1.91.57,1.9,1.9,0,0,0-1,1.76,1.82,1.82,0,0,0,.6,1.53,2.26,2.26,0,0,0,1.46.47,4.35,4.35,0,0,0,2.5-.78,3.35,3.35,0,0,0,1.19-2.87Z"/><path class="cls-1" d="M62.29,19.72l.36,0V24l-.7-.06h-.5c-1.66,0-2.78.54-3.35,1.63a6.33,6.33,0,0,0-.48,2.82v7.57H53.45V20.09h4v2.77a8.66,8.66,0,0,1,1.67-2.17,4.53,4.53,0,0,1,3-1Z"/><path class="cls-1" d="M63.45,23.19v-3h2.21V15.81h4.11v4.42h2.57v2.95H69.76v8.38A1.87,1.87,0,0,0,70,32.78a2.74,2.74,0,0,0,1.51.23h.4l.42,0v3.09l-2,.08c-2,.06-3.29-.27-4-1a3,3,0,0,1-.7-2.2V23.19Z"/><path class="cls-1" d="M88.22,34q-2,2.48-6.1,2.48T76,34a9.17,9.17,0,0,1-2-6,9.24,9.24,0,0,1,2-5.94q2-2.52,6.09-2.52t6.09,2.51a9.25,9.25,0,0,1,2,6A9.21,9.21,0,0,1,88.22,34ZM84.9,31.7a6,6,0,0,0,1-3.67,6,6,0,0,0-1-3.67,3.69,3.69,0,0,0-5.59,0,5.85,5.85,0,0,0-1,3.67,5.92,5.92,0,0,0,1,3.67,3.65,3.65,0,0,0,5.59,0Z"/><path class="cls-1" d="M101,20.06a5,5,0,0,1,2.44,2.3V20.07h4v15a8.32,8.32,0,0,1-1,4.62q-1.77,2.69-6.8,2.68a9.22,9.22,0,0,1-5-1.19,4.37,4.37,0,0,1-2.12-3.56h4.5a1.88,1.88,0,0,0,.57,1,3.51,3.51,0,0,0,2.26.57,3,3,0,0,0,3-1.5,7.61,7.61,0,0,0,.49-3.23v-1a4.9,4.9,0,0,1-1.28,1.53,5.13,5.13,0,0,1-3.21,1A6.08,6.08,0,0,1,94,33.86a8.66,8.66,0,0,1-1.83-5.81A9.79,9.79,0,0,1,94,22.11a5.79,5.79,0,0,1,5-2.41A5.56,5.56,0,0,1,101,20.06Zm1.41,11.36a5.05,5.05,0,0,0,1-3.49,5.4,5.4,0,0,0-1-3.44A3.1,3.1,0,0,0,100,23.32a3,3,0,0,0-3,2.05,7.29,7.29,0,0,0-.43,2.69A6.17,6.17,0,0,0,97,30.52a3,3,0,0,0,3,2A3.14,3.14,0,0,0,102.44,31.42Z"/><path class="cls-1" d="M120.18,19.69l.36,0V24l-.7-.06h-.49c-1.67,0-2.79.54-3.36,1.63a6.33,6.33,0,0,0-.48,2.82v7.58h-4.17V20.07h4v2.76A8.9,8.9,0,0,1,117,20.66a4.55,4.55,0,0,1,3-1Z"/><path class="cls-1" d="M129.25,26.27a6.93,6.93,0,0,0,1.65-.36,1.26,1.26,0,0,0,.9-1.18,1.4,1.4,0,0,0-.69-1.35,4.44,4.44,0,0,0-2-.37,2.66,2.66,0,0,0-2.11.73,3.1,3.1,0,0,0-.59,1.46h-4a6.09,6.09,0,0,1,1.17-3.42q1.65-2.1,5.66-2.1a10.2,10.2,0,0,1,4.65,1,4,4,0,0,1,2,3.9v7.27q0,.77,0,1.83a2.36,2.36,0,0,0,.25,1.11,1.59,1.59,0,0,0,.61.48v.61h-4.5A4.52,4.52,0,0,1,132,35c-.05-.28-.08-.6-.11-1a8.81,8.81,0,0,1-2,1.59,6.05,6.05,0,0,1-3,.77,5.24,5.24,0,0,1-3.58-1.23,4.37,4.37,0,0,1-1.41-3.48,4.49,4.49,0,0,1,2.26-4.23,10,10,0,0,1,3.67-1Zm2.53,1.93a4,4,0,0,1-.8.4,6.19,6.19,0,0,1-1.11.29l-1,.17a6.36,6.36,0,0,0-1.9.57,1.91,1.91,0,0,0-1,1.76,1.85,1.85,0,0,0,.6,1.54,2.29,2.29,0,0,0,1.45.47,4.39,4.39,0,0,0,2.51-.79,3.33,3.33,0,0,0,1.18-2.86Z"/><path class="cls-1" d="M146.09,14.27l.87.07v3.37q-.35,0-1.17-.06a1.2,1.2,0,0,0-1.45,1.21V20.2h2.72v2.92h-2.71V35.91h-4.11V23.13H137.9V20.2h2.27v-1a5.3,5.3,0,0,1,.86-3.5c.6-.95,2.05-1.43,4.34-1.43Z"/><path class="cls-1" d="M153.71,18.16h-4.2V14.34h4.21Zm-4.2,1.89h4.2V35.9h-4.21Z"/><path class="cls-1" d="M164,26.26a6.47,6.47,0,0,0,1.66-.37,1.25,1.25,0,0,0,.89-1.18,1.4,1.4,0,0,0-.68-1.34,4.33,4.33,0,0,0-2-.37,2.61,2.61,0,0,0-2.1.73,2.87,2.87,0,0,0-.59,1.45h-4a6,6,0,0,1,1.16-3.41q1.65-2.1,5.67-2.1a10.13,10.13,0,0,1,4.65,1,4,4,0,0,1,2,3.9v7.27q0,.75,0,1.83a2.23,2.23,0,0,0,.25,1.1,1.37,1.37,0,0,0,.61.48v.61h-4.51a4.45,4.45,0,0,1-.26-.9q-.07-.44-.12-1a8.56,8.56,0,0,1-2,1.58,5.92,5.92,0,0,1-3,.77,5.32,5.32,0,0,1-3.58-1.22,4.38,4.38,0,0,1-1.41-3.49,4.52,4.52,0,0,1,2.27-4.23,10.36,10.36,0,0,1,3.66-1Zm2.54,1.93a5,5,0,0,1-.8.4,6.7,6.7,0,0,1-1.12.28l-.94.18a5.9,5.9,0,0,0-1.91.57,1.89,1.89,0,0,0-1,1.76,1.86,1.86,0,0,0,.59,1.53,2.26,2.26,0,0,0,1.46.47,4.33,4.33,0,0,0,2.5-.78,3.35,3.35,0,0,0,1.19-2.87Z"/><path class="cls-1" d="M24.11,56.29A5.14,5.14,0,0,1,26,58.09V50.3h4.33v22H26.17V70.08a6,6,0,0,1-2.08,2.12,5.84,5.84,0,0,1-2.9.66,6.05,6.05,0,0,1-4.82-2.32,8.89,8.89,0,0,1-2-5.93A10.19,10.19,0,0,1,16.34,58a6.26,6.26,0,0,1,5.14-2.39A5.18,5.18,0,0,1,24.11,56.29Zm1.06,11.62a6,6,0,0,0,.94-3.49c0-2-.51-3.42-1.52-4.28a3.23,3.23,0,0,0-2.15-.78,3,3,0,0,0-2.75,1.42,6.57,6.57,0,0,0-.87,3.51,6.47,6.47,0,0,0,.89,3.62,3,3,0,0,0,2.7,1.35A3.16,3.16,0,0,0,25.17,67.91Z"/><path class="cls-1" d="M40.66,62.41a6.77,6.77,0,0,0,1.7-.37,1.28,1.28,0,0,0,.92-1.22,1.42,1.42,0,0,0-.7-1.38,4.41,4.41,0,0,0-2.08-.38,2.73,2.73,0,0,0-2.17.75,3.08,3.08,0,0,0-.6,1.49H33.61a6.26,6.26,0,0,1,1.2-3.52q1.69-2.16,5.84-2.16a10.41,10.41,0,0,1,4.78,1.06c1.39.71,2.09,2,2.09,4v7.49q0,.78,0,1.89a2.35,2.35,0,0,0,.26,1.13,1.54,1.54,0,0,0,.63.5v.63H43.8a4.76,4.76,0,0,1-.27-.93q-.08-.43-.12-1a9,9,0,0,1-2,1.63,6.18,6.18,0,0,1-3.13.8,5.43,5.43,0,0,1-3.69-1.26A4.51,4.51,0,0,1,33.09,68a4.66,4.66,0,0,1,2.33-4.36,10.51,10.51,0,0,1,3.78-1Zm2.61,2a4.26,4.26,0,0,1-.83.41,6.51,6.51,0,0,1-1.14.3l-1,.18a6.42,6.42,0,0,0-2,.58,1.94,1.94,0,0,0-1,1.81A1.89,1.89,0,0,0,38,69.26a2.31,2.31,0,0,0,1.5.49,4.48,4.48,0,0,0,2.58-.81,3.44,3.44,0,0,0,1.22-3Z"/><path class="cls-1" d="M62.22,52.56A9.11,9.11,0,0,1,69,49.84c3.68,0,6.36,1.21,8.06,3.65a8,8,0,0,1,1.52,4.11H74a6.26,6.26,0,0,0-1.13-2.39,5,5,0,0,0-7.54.59,10,10,0,0,0-1.42,5.75,8.7,8.7,0,0,0,1.51,5.56A4.71,4.71,0,0,0,69.19,69a4.31,4.31,0,0,0,3.62-1.59A6.89,6.89,0,0,0,74,64.81h4.58a10,10,0,0,1-3,5.87,8.83,8.83,0,0,1-6.25,2.26,9.36,9.36,0,0,1-7.4-3c-1.8-2-2.7-4.85-2.7-8.42C59.15,57.62,60.18,54.65,62.22,52.56Z"/><path class="cls-1" d="M86.17,56v9.84a5.14,5.14,0,0,0,.33,2.09,2.27,2.27,0,0,0,2.28,1.24,3,3,0,0,0,3-1.76,6.43,6.43,0,0,0,.42-2.54V56H96.5V72.32H92.36V70s-.14.2-.3.45a3,3,0,0,1-.57.66,5.86,5.86,0,0,1-1.93,1.23,6.55,6.55,0,0,1-2.19.33q-3.62,0-4.87-2.61a9.92,9.92,0,0,1-.7-4.23V56Z"/><path class="cls-1" d="M105,72.31h-4.26V50.24H105Z"/><path class="cls-1" d="M107.49,59.18v-3h2.28V51.58H114v4.56h2.65v3H114V67.8c0,.67.08,1.09.25,1.25a2.75,2.75,0,0,0,1.56.25h.41l.43,0v3.19l-2,.07c-2,.07-3.4-.28-4.14-1a3.14,3.14,0,0,1-.72-2.27v-10Z"/><path class="cls-1" d="M123.63,56v9.84a5.16,5.16,0,0,0,.33,2.1,2.26,2.26,0,0,0,2.28,1.24,3,3,0,0,0,3-1.77,6.58,6.58,0,0,0,.41-2.53V56H134V72.3h-4.14V70c0,.05-.13.2-.29.45a3,3,0,0,1-.57.66A6,6,0,0,1,127,72.33a6.64,6.64,0,0,1-2.19.33c-2.41,0-4-.86-4.87-2.6a10,10,0,0,1-.7-4.24V56Z"/><path class="cls-1" d="M147.18,55.59l.37,0V60l-.72-.06h-.51c-1.71,0-2.87.56-3.46,1.68a6.53,6.53,0,0,0-.49,2.9V72.3h-4.29V56h4.07v2.85a9.25,9.25,0,0,1,1.72-2.23,4.7,4.7,0,0,1,3.12-1Z"/><path class="cls-1" d="M156.52,62.36a6.77,6.77,0,0,0,1.7-.37,1.3,1.3,0,0,0,.92-1.22,1.41,1.41,0,0,0-.71-1.38,4.39,4.39,0,0,0-2.07-.38,2.73,2.73,0,0,0-2.17.75,3.12,3.12,0,0,0-.6,1.49h-4.12a6.26,6.26,0,0,1,1.2-3.52c1.13-1.44,3.08-2.16,5.83-2.16a10.42,10.42,0,0,1,4.79,1.06c1.39.71,2.09,2,2.09,4v7.49q0,.78,0,1.89a2.35,2.35,0,0,0,.26,1.13,1.54,1.54,0,0,0,.63.5v.63h-4.65a4.1,4.1,0,0,1-.26-.93,8.26,8.26,0,0,1-.13-1,8.51,8.51,0,0,1-2,1.63,6.21,6.21,0,0,1-3.14.8,5.43,5.43,0,0,1-3.68-1.26A4.51,4.51,0,0,1,149,68a4.64,4.64,0,0,1,2.33-4.36,10.45,10.45,0,0,1,3.77-1.05Zm2.61,2a4.56,4.56,0,0,1-.83.41,6.42,6.42,0,0,1-1.15.3l-1,.18a6.42,6.42,0,0,0-2,.58,2,2,0,0,0-1,1.81,1.89,1.89,0,0,0,.62,1.58,2.31,2.31,0,0,0,1.5.49,4.48,4.48,0,0,0,2.58-.81,3.44,3.44,0,0,0,1.22-3Z"/><path class="cls-1" d="M167,67.81h4.53v4.47H167Z"/><path class="cls-1" d="M14.8,141.07H20v1.27H16.31V144h3.2v1.26H16.31v3h-1.5Z"/><path class="cls-1" d="M25.3,147.64a2.47,2.47,0,0,1-2.05.84,2.49,2.49,0,0,1-2.06-.84,3,3,0,0,1-.68-2,3.1,3.1,0,0,1,.68-2,2.44,2.44,0,0,1,2-.85,2.47,2.47,0,0,1,2.06.85,3.11,3.11,0,0,1,.68,2A3.06,3.06,0,0,1,25.3,147.64Zm-1.12-.77a2.49,2.49,0,0,0,0-2.48,1.11,1.11,0,0,0-.94-.44,1.13,1.13,0,0,0-.95.44,2.49,2.49,0,0,0,0,2.48,1.23,1.23,0,0,0,1.89,0Zm.74-6.12-1.5,1.47h-1l.95-1.47Z"/><path class="cls-1" d="M30,142.81h.12v1.44l-.24,0h-.17a1.17,1.17,0,0,0-1.13.55,2.16,2.16,0,0,0-.16,1v2.56H27v-5.36H28.3v.93a3.17,3.17,0,0,1,.57-.73,1.53,1.53,0,0,1,1-.33Z"/><path class="cls-1" d="M32.29,142.94v3.23a1.68,1.68,0,0,0,.11.68.74.74,0,0,0,.75.41,1,1,0,0,0,1-.58,2.16,2.16,0,0,0,.13-.83v-2.91h1.42v5.35H34.32v-.75l-.09.14a1,1,0,0,1-.19.22,1.82,1.82,0,0,1-.64.4,1.93,1.93,0,0,1-.71.11,1.6,1.6,0,0,1-1.6-.85,3.36,3.36,0,0,1-.23-1.39v-3.23Z"/><path class="cls-1" d="M43.72,143a1.77,1.77,0,0,1,.63.48,1.55,1.55,0,0,1,.3.69,4.09,4.09,0,0,1,.05.79v3.38H43.26v-3.41a1.2,1.2,0,0,0-.1-.5.7.7,0,0,0-.69-.38.83.83,0,0,0-.8.49,1.58,1.58,0,0,0-.11.61v3.19H40.15V145.1a1.67,1.67,0,0,0-.1-.69.69.69,0,0,0-.69-.39.83.83,0,0,0-.81.39,1.61,1.61,0,0,0-.11.66v3.22H37V143h1.36v.78a2.31,2.31,0,0,1,.49-.6,2,2,0,0,1,2.05,0,1.51,1.51,0,0,1,.46.64,1.74,1.74,0,0,1,.68-.69,2.07,2.07,0,0,1,1-.22A1.87,1.87,0,0,1,43.72,143Z"/><path class="cls-1" d="M55.46,143a1.53,1.53,0,0,1,.93,1.17,4,4,0,0,1,0,.79v3.37H55v-3.41a1.06,1.06,0,0,0-.1-.5.69.69,0,0,0-.69-.37.81.81,0,0,0-.8.48,1.64,1.64,0,0,0-.11.62v3.18H51.89V145.1a1.75,1.75,0,0,0-.1-.7.69.69,0,0,0-.69-.38.85.85,0,0,0-.81.38,1.61,1.61,0,0,0-.11.66v3.23H48.76v-5.35h1.36v.78a2.23,2.23,0,0,1,.49-.59,1.69,1.69,0,0,1,1.06-.32,1.66,1.66,0,0,1,1,.27,1.54,1.54,0,0,1,.46.65,1.83,1.83,0,0,1,.68-.7,2.07,2.07,0,0,1,1-.22A1.85,1.85,0,0,1,55.46,143Z"/><path class="cls-1" d="M59.12,142.93v3.23a1.71,1.71,0,0,0,.1.68.75.75,0,0,0,.75.41,1,1,0,0,0,1-.58,2.14,2.14,0,0,0,.14-.83v-2.91h1.42v5.35H61.16v-.76a1.2,1.2,0,0,0-.1.15,1,1,0,0,1-.19.22,1.88,1.88,0,0,1-.63.4,2.27,2.27,0,0,1-.72.11,1.61,1.61,0,0,1-1.6-.85,3.36,3.36,0,0,1-.23-1.39v-3.23Z"/><path class="cls-1" d="M68.19,143.23a1.77,1.77,0,0,1,.53,1.44v3.61H67.29V145a1.42,1.42,0,0,0-.12-.65.78.78,0,0,0-.78-.41,1,1,0,0,0-1,.61,2.08,2.08,0,0,0-.13.81v2.9h-1.4v-5.34h1.35v.79a2.32,2.32,0,0,1,.51-.6,1.81,1.81,0,0,1,1.09-.32A2,2,0,0,1,68.19,143.23Z"/><path class="cls-1" d="M71.46,142.28H70V141h1.42Zm-1.42.64h1.42v5.36H70Z"/><path class="cls-1" d="M76,144.84a1.26,1.26,0,0,0-.2-.54.84.84,0,0,0-.74-.32,1,1,0,0,0-1,.7,3,3,0,0,0-.13,1,2.54,2.54,0,0,0,.14,1,.93.93,0,0,0,.94.66.86.86,0,0,0,.7-.26,1.33,1.33,0,0,0,.25-.69h1.43a2.38,2.38,0,0,1-.46,1.21,2.25,2.25,0,0,1-2,.92,2.3,2.3,0,0,1-1.91-.77,3.63,3.63,0,0,1,.07-4.13,2.32,2.32,0,0,1,1.85-.77,2.78,2.78,0,0,1,1.65.45,2.08,2.08,0,0,1,.76,1.6Z"/><path class="cls-1" d="M79.85,142.28H78.43V141h1.42Zm-1.42.64h1.42v5.35H78.43Z"/><path class="cls-1" d="M85.71,143.49a2.83,2.83,0,0,1,.66,2,3.24,3.24,0,0,1-.64,2.16,2.07,2.07,0,0,1-1.65.74A1.68,1.68,0,0,1,83,148.1a1.92,1.92,0,0,1-.45-.51v2.79H81.17v-7.46h1.34v.79a2.2,2.2,0,0,1,.48-.55,1.81,1.81,0,0,1,1.12-.36A2.13,2.13,0,0,1,85.71,143.49Zm-1.07,1a1,1,0,0,0-.93-.48,1.07,1.07,0,0,0-1.06.72,2.54,2.54,0,0,0-.14,1A1.52,1.52,0,0,0,83,147a1.12,1.12,0,0,0,.7.22,1,1,0,0,0,.9-.45,2.39,2.39,0,0,0,0-2.3Z"/><path class="cls-1" d="M89.47,145a2,2,0,0,0,.56-.12.44.44,0,0,0,.31-.4.46.46,0,0,0-.24-.45,1.37,1.37,0,0,0-.68-.13.88.88,0,0,0-.71.25,1.05,1.05,0,0,0-.2.49H87.16a2,2,0,0,1,.4-1.16,2.3,2.3,0,0,1,1.91-.7,3.45,3.45,0,0,1,1.57.34,1.35,1.35,0,0,1,.69,1.32v2.46c0,.17,0,.37,0,.62a.75.75,0,0,0,.08.37.49.49,0,0,0,.21.16v.21H90.5a1.29,1.29,0,0,1-.08-.31,2.53,2.53,0,0,1,0-.32,3,3,0,0,1-.68.54,2,2,0,0,1-1,.26,1.76,1.76,0,0,1-1.21-.42,1.46,1.46,0,0,1-.48-1.17,1.52,1.52,0,0,1,.77-1.43,3.43,3.43,0,0,1,1.23-.35Zm.86.66a1.66,1.66,0,0,1-.27.13,2.84,2.84,0,0,1-.38.1l-.32.06a2,2,0,0,0-.64.19.63.63,0,0,0-.33.59.64.64,0,0,0,.2.52.76.76,0,0,0,.49.16,1.46,1.46,0,0,0,.85-.27,1.1,1.1,0,0,0,.4-1Z"/><path class="cls-1" d="M94.38,148.27H93V141h1.4Z"/><path class="cls-1" d="M17.54,155.1a1.75,1.75,0,0,1,.61.6v-2.56h1.42v7.23H18.21v-.74a2,2,0,0,1-.68.69,1.89,1.89,0,0,1-1,.22,2,2,0,0,1-1.58-.76,2.93,2.93,0,0,1-.64-1.95,3.34,3.34,0,0,1,.63-2.15,2,2,0,0,1,1.69-.79A1.81,1.81,0,0,1,17.54,155.1Zm.34,3.82a2,2,0,0,0,.31-1.15,1.75,1.75,0,0,0-.5-1.4,1.06,1.06,0,0,0-.7-.26,1,1,0,0,0-.91.47,2.15,2.15,0,0,0-.28,1.15,2.1,2.1,0,0,0,.29,1.19,1,1,0,0,0,.89.44A1,1,0,0,0,17.88,158.92Z"/><path class="cls-1" d="M24.33,155.12a2.3,2.3,0,0,1,.93.8,2.48,2.48,0,0,1,.42,1.1,6.22,6.22,0,0,1,.05,1.07h-3.9a1.3,1.3,0,0,0,.56,1.13,1.45,1.45,0,0,0,.77.2,1.16,1.16,0,0,0,.78-.25,1.26,1.26,0,0,0,.29-.37h1.43a1.76,1.76,0,0,1-.52,1,2.61,2.61,0,0,1-2,.78,2.9,2.9,0,0,1-1.88-.66,2.56,2.56,0,0,1-.82-2.14,2.89,2.89,0,0,1,.74-2.13,2.56,2.56,0,0,1,1.91-.75A3.15,3.15,0,0,1,24.33,155.12Zm-2.09,1.21a1.46,1.46,0,0,0-.38.83h2.42a1.15,1.15,0,0,0-.38-.84,1.19,1.19,0,0,0-.83-.29A1.1,1.1,0,0,0,22.24,156.33Z"/><path class="cls-1" d="M30,153.88a3,3,0,0,1,2.22-.89,3,3,0,0,1,2.65,1.2,2.59,2.59,0,0,1,.49,1.35H33.89a2.16,2.16,0,0,0-.37-.79,1.51,1.51,0,0,0-1.2-.47A1.48,1.48,0,0,0,31,155a3.24,3.24,0,0,0-.46,1.88,2.87,2.87,0,0,0,.49,1.83,1.56,1.56,0,0,0,1.25.6,1.41,1.41,0,0,0,1.19-.52,2.36,2.36,0,0,0,.38-.84h1.5a3.3,3.3,0,0,1-1,1.93,2.93,2.93,0,0,1-2,.74,3.1,3.1,0,0,1-2.43-1,4.74,4.74,0,0,1,.12-5.69Z"/><path class="cls-1" d="M37.89,155v3.23a1.68,1.68,0,0,0,.11.68.74.74,0,0,0,.75.41,1,1,0,0,0,1-.58,2.12,2.12,0,0,0,.13-.83V155h1.42v5.35H39.92v-.75l-.09.14a1,1,0,0,1-.19.22,1.88,1.88,0,0,1-.63.4,2,2,0,0,1-.72.11,1.61,1.61,0,0,1-1.6-.85,3.36,3.36,0,0,1-.23-1.39V155Z"/><path class="cls-1" d="M44.08,160.36H42.67v-7.24h1.4Z"/><path class="cls-1" d="M44.89,156.05v-1h.75v-1.5H47v1.49h.87v1H47v2.83c0,.22,0,.36.09.41s.22.08.51.08h.27v1l-.66,0a1.78,1.78,0,0,1-1.36-.34,1.06,1.06,0,0,1-.23-.74v-3.3Z"/><path class="cls-1" d="M50.18,155v3.23a1.73,1.73,0,0,0,.1.69.75.75,0,0,0,.75.41,1,1,0,0,0,1-.58,2.14,2.14,0,0,0,.14-.83V155h1.42v5.36H52.22v-.76l-.09.15a2,2,0,0,1-.19.22,2.05,2.05,0,0,1-.63.4,2.27,2.27,0,0,1-.72.11,1.61,1.61,0,0,1-1.6-.86,3.3,3.3,0,0,1-.23-1.39V155Z"/><path class="cls-1" d="M57.91,154.88H58v1.44l-.24,0h-.16a1.18,1.18,0,0,0-1.14.55,2.16,2.16,0,0,0-.16,1v2.56H54.92V155h1.34v.94a2.84,2.84,0,0,1,.56-.74,1.53,1.53,0,0,1,1-.33Z"/><path class="cls-1" d="M61,157.1a2.44,2.44,0,0,0,.56-.13.41.41,0,0,0,.3-.39.47.47,0,0,0-.23-.46,1.5,1.5,0,0,0-.68-.12.91.91,0,0,0-.71.24,1,1,0,0,0-.2.49H58.66a2.09,2.09,0,0,1,.39-1.16,2.31,2.31,0,0,1,1.92-.71,3.46,3.46,0,0,1,1.57.35,1.34,1.34,0,0,1,.68,1.32V159c0,.17,0,.38,0,.62a.78.78,0,0,0,.09.38.56.56,0,0,0,.2.16v.2H62a2,2,0,0,1-.09-.3c0-.1,0-.2,0-.32a2.9,2.9,0,0,1-.67.53,2,2,0,0,1-1,.26,1.78,1.78,0,0,1-1.2-.41,1.48,1.48,0,0,1-.48-1.18,1.53,1.53,0,0,1,.76-1.43,3.51,3.51,0,0,1,1.24-.34Zm.86.65a1.74,1.74,0,0,1-.27.14l-.38.09-.32.06a2.14,2.14,0,0,0-.64.19.65.65,0,0,0-.33.6.64.64,0,0,0,.2.52.75.75,0,0,0,.49.15,1.45,1.45,0,0,0,.85-.26,1.15,1.15,0,0,0,.4-1Z"/><path class="cls-1" d="M17.54,167.18a1.64,1.64,0,0,1,.61.59v-2.56h1.42v7.24H18.22v-.75a2,2,0,0,1-.69.7,1.94,1.94,0,0,1-1,.21,2,2,0,0,1-1.58-.75,2.92,2.92,0,0,1-.64-2,3.35,3.35,0,0,1,.63-2.16,2.06,2.06,0,0,1,1.69-.79A1.74,1.74,0,0,1,17.54,167.18Zm.35,3.81a2,2,0,0,0,.3-1.14,1.76,1.76,0,0,0-.49-1.41,1.08,1.08,0,0,0-.71-.25,1,1,0,0,0-.9.46,2.5,2.5,0,0,0,0,2.34,1,1,0,0,0,.89.44A1,1,0,0,0,17.89,171Z"/><path class="cls-1" d="M24.34,167.2a2.12,2.12,0,0,1,.92.79,2.72,2.72,0,0,1,.43,1.11,7.29,7.29,0,0,1,0,1.06h-3.9a1.26,1.26,0,0,0,.56,1.13,1.45,1.45,0,0,0,.77.2,1.16,1.16,0,0,0,.77-.24,1.22,1.22,0,0,0,.29-.37h1.43a1.74,1.74,0,0,1-.52,1,2.57,2.57,0,0,1-2,.79,2.94,2.94,0,0,1-1.89-.66,2.62,2.62,0,0,1-.81-2.15,2.87,2.87,0,0,1,.73-2.13,2.56,2.56,0,0,1,1.92-.74A3,3,0,0,1,24.34,167.2Zm-2.1,1.21a1.42,1.42,0,0,0-.37.83h2.41a1.15,1.15,0,0,0-.37-.85,1.25,1.25,0,0,0-.83-.29A1.1,1.1,0,0,0,22.24,168.41Z"/><path class="cls-1" d="M30,166a3,3,0,0,1,2.23-.9,3,3,0,0,1,2.64,1.2,2.67,2.67,0,0,1,.5,1.35H33.89a2,2,0,0,0-.37-.79,1.51,1.51,0,0,0-1.2-.47,1.49,1.49,0,0,0-1.27.67,3.24,3.24,0,0,0-.47,1.88,2.85,2.85,0,0,0,.5,1.83,1.54,1.54,0,0,0,1.25.6,1.42,1.42,0,0,0,1.19-.52,2.21,2.21,0,0,0,.37-.84h1.5a3.3,3.3,0,0,1-1,1.93,2.9,2.9,0,0,1-2,.74,3.07,3.07,0,0,1-2.43-1A4.77,4.77,0,0,1,30,166Z"/><path class="cls-1" d="M38.62,169.18a2,2,0,0,0,.56-.12.44.44,0,0,0,.31-.4.48.48,0,0,0-.24-.46,1.5,1.5,0,0,0-.68-.12.88.88,0,0,0-.71.25,1.05,1.05,0,0,0-.2.49H36.31a2,2,0,0,1,.4-1.16,2.33,2.33,0,0,1,1.91-.71,3.46,3.46,0,0,1,1.57.35,1.33,1.33,0,0,1,.69,1.32v2.46c0,.17,0,.37,0,.61a.77.77,0,0,0,.08.38.58.58,0,0,0,.21.16v.21H39.65a1.29,1.29,0,0,1-.08-.31,2.53,2.53,0,0,1,0-.32,2.71,2.71,0,0,1-.68.53,1.94,1.94,0,0,1-1,.26,1.76,1.76,0,0,1-1.21-.41,1.48,1.48,0,0,1-.48-1.18,1.54,1.54,0,0,1,.77-1.43,3.45,3.45,0,0,1,1.23-.34Zm.86.65a1.74,1.74,0,0,1-.27.14l-.38.09-.31.06a2.18,2.18,0,0,0-.65.2.62.62,0,0,0-.33.59.64.64,0,0,0,.2.52.82.82,0,0,0,.49.16,1.46,1.46,0,0,0,.85-.27,1.12,1.12,0,0,0,.4-1Z"/><path class="cls-1" d="M48.78,167.1a1.47,1.47,0,0,1,.62.48,1.56,1.56,0,0,1,.31.69,5,5,0,0,1,0,.79v3.37H48.32V169a1.21,1.21,0,0,0-.09-.5.71.71,0,0,0-.69-.37.79.79,0,0,0-.8.48,1.46,1.46,0,0,0-.12.62v3.18H45.21v-3.18a2,2,0,0,0-.09-.7.69.69,0,0,0-.7-.38.82.82,0,0,0-.8.38,1.44,1.44,0,0,0-.12.66v3.23H42.08v-5.35h1.36v.78a2.08,2.08,0,0,1,.5-.59,1.91,1.91,0,0,1,2-.05,1.56,1.56,0,0,1,.47.65,1.77,1.77,0,0,1,.68-.7,2.05,2.05,0,0,1,1-.22A1.9,1.9,0,0,1,48.78,167.1Z"/><path class="cls-1" d="M55.55,167.65a2.88,2.88,0,0,1,.65,2,3.18,3.18,0,0,1-.64,2.16,2,2,0,0,1-1.64.74,1.68,1.68,0,0,1-1.07-.32,1.94,1.94,0,0,1-.46-.51v2.79H51v-7.46h1.35v.79a2.2,2.2,0,0,1,.48-.55A1.79,1.79,0,0,1,54,167,2.13,2.13,0,0,1,55.55,167.65Zm-1.08,1a1,1,0,0,0-.92-.48,1,1,0,0,0-1.06.72,2.73,2.73,0,0,0-.15,1,1.55,1.55,0,0,0,.5,1.31,1.15,1.15,0,0,0,.71.22,1,1,0,0,0,.9-.45,2.11,2.11,0,0,0,.31-1.21A2.09,2.09,0,0,0,54.47,168.66Z"/><path class="cls-1" d="M61.66,171.77a2.95,2.95,0,0,1-4.12,0,3.09,3.09,0,0,1-.68-2,3.15,3.15,0,0,1,.68-2,2.92,2.92,0,0,1,4.12,0,3.35,3.35,0,0,1,0,4ZM60.54,171a2.49,2.49,0,0,0,0-2.48,1.12,1.12,0,0,0-.95-.43,1.1,1.1,0,0,0-.94.43,2.49,2.49,0,0,0,0,2.48,1.11,1.11,0,0,0,.94.44A1.13,1.13,0,0,0,60.54,171Z"/><path class="cls-1" d="M71.11,167.44a1.38,1.38,0,0,0-.84-1,2,2,0,0,0-.83-.17,1.82,1.82,0,0,0-1.44.66,3,3,0,0,0-.56,2,2.49,2.49,0,0,0,.61,1.89,2.06,2.06,0,0,0,1.39.55,1.82,1.82,0,0,0,1.25-.44,1.92,1.92,0,0,0,.6-1.14H69.61v-1.21h3v3.88h-1l-.16-.9a3.5,3.5,0,0,1-.78.72,2.73,2.73,0,0,1-1.48.37,3.09,3.09,0,0,1-2.36-1,3.85,3.85,0,0,1-.95-2.74,4,4,0,0,1,1-2.82A3.3,3.3,0,0,1,69.42,165a3.34,3.34,0,0,1,2.22.7,2.56,2.56,0,0,1,1,1.74Z"/><path class="cls-1" d="M76.93,166.94h.12v1.43l-.23,0h-.17a1.17,1.17,0,0,0-1.14.55,2.23,2.23,0,0,0-.16,1v2.56H73.94v-5.35h1.34V168a2.75,2.75,0,0,1,.56-.73,1.54,1.54,0,0,1,1-.33Z"/><path class="cls-1" d="M80,169.16a2.08,2.08,0,0,0,.56-.12.43.43,0,0,0,.3-.4.45.45,0,0,0-.23-.45,1.37,1.37,0,0,0-.68-.13.88.88,0,0,0-.71.25,1.05,1.05,0,0,0-.2.49H77.68a2,2,0,0,1,.4-1.15,2.26,2.26,0,0,1,1.91-.71,3.33,3.33,0,0,1,1.57.35,1.32,1.32,0,0,1,.68,1.31v2.46c0,.17,0,.37,0,.62a.72.72,0,0,0,.08.37.44.44,0,0,0,.21.16v.21H81a2.12,2.12,0,0,1-.09-.31c0-.09,0-.2,0-.32a3,3,0,0,1-.68.54,2,2,0,0,1-1,.26,1.76,1.76,0,0,1-1.21-.42,1.46,1.46,0,0,1-.48-1.17,1.52,1.52,0,0,1,.77-1.43,3.43,3.43,0,0,1,1.23-.35Zm.86.66a1.66,1.66,0,0,1-.27.13,2.84,2.84,0,0,1-.38.1l-.32.06a2,2,0,0,0-.64.19.63.63,0,0,0-.33.59.64.64,0,0,0,.2.52.76.76,0,0,0,.49.16,1.46,1.46,0,0,0,.85-.27,1.1,1.1,0,0,0,.4-1Z"/><path class="cls-1" d="M87.79,167.37a1.77,1.77,0,0,1,.52,1.44v3.61H86.88v-3.26a1.59,1.59,0,0,0-.11-.65.81.81,0,0,0-.79-.41,1,1,0,0,0-1,.6,2.17,2.17,0,0,0-.13.82v2.9h-1.4v-5.35h1.35v.78a2.42,2.42,0,0,1,.51-.59,1.75,1.75,0,0,1,1.09-.33A2.09,2.09,0,0,1,87.79,167.37Z"/><path class="cls-1" d="M92.45,167.15a1.75,1.75,0,0,1,.62.59v-2.56h1.42v7.23H93.13v-.74a2,2,0,0,1-.69.7,1.94,1.94,0,0,1-1,.21,2,2,0,0,1-1.58-.76,2.87,2.87,0,0,1-.64-1.94,3.35,3.35,0,0,1,.63-2.16,2,2,0,0,1,1.69-.79A1.64,1.64,0,0,1,92.45,167.15ZM92.8,171a2,2,0,0,0,.31-1.14,1.76,1.76,0,0,0-.5-1.41,1.06,1.06,0,0,0-.71-.25,1,1,0,0,0-.9.46,2.16,2.16,0,0,0-.29,1.15A2.1,2.1,0,0,0,91,171a1,1,0,0,0,.88.44A1,1,0,0,0,92.8,171Z"/><path class="cls-1" d="M99.25,167.17a2.12,2.12,0,0,1,.92.79,2.54,2.54,0,0,1,.43,1.1,7.45,7.45,0,0,1,.05,1.07h-3.9a1.29,1.29,0,0,0,.56,1.13,1.45,1.45,0,0,0,.77.2,1.16,1.16,0,0,0,.78-.25,1.26,1.26,0,0,0,.29-.37h1.42a1.74,1.74,0,0,1-.51,1,2.61,2.61,0,0,1-2,.78,2.94,2.94,0,0,1-1.88-.65,2.6,2.6,0,0,1-.82-2.15,2.88,2.88,0,0,1,.73-2.13,2.62,2.62,0,0,1,1.92-.75A3.05,3.05,0,0,1,99.25,167.17Zm-2.1,1.21a1.49,1.49,0,0,0-.37.82h2.41a1.14,1.14,0,0,0-.37-.84,1.23,1.23,0,0,0-.83-.29A1.1,1.1,0,0,0,97.15,168.38Z"/><rect class="cls-1" x="14.82" y="177.41" width="100.28" height="1.43"/><path class="cls-1" d="M19.8,184.52a2.53,2.53,0,0,1,.83,1.64h-.95a2,2,0,0,0-.64-1.1,1.93,1.93,0,0,0-1.33-.41,2.12,2.12,0,0,0-1.69.75,4.2,4.2,0,0,0-.06,4.36,2,2,0,0,0,1.73.78,1.81,1.81,0,0,0,1.62-.83,3.14,3.14,0,0,0,.44-1.15h.95a3.24,3.24,0,0,1-.83,1.91,3,3,0,0,1-2.3.93,3,3,0,0,1-2.08-.76,4.7,4.7,0,0,1-.28-5.73,3,3,0,0,1,2.49-1.11A2.91,2.91,0,0,1,19.8,184.52Z"/><path class="cls-1" d="M22.73,186v3.49a1.56,1.56,0,0,0,.12.66.88.88,0,0,0,.86.47,1.22,1.22,0,0,0,1.23-.82,3.6,3.6,0,0,0,.17-1.22V186H26v5.26h-.84v-.78a1.74,1.74,0,0,1-.42.51,1.84,1.84,0,0,1-1.2.41A1.56,1.56,0,0,1,22,190.6a2.34,2.34,0,0,1-.21-1.07V186Z"/><path class="cls-1" d="M27.46,184h.89v7.22h-.88Z"/><path class="cls-1" d="M29.85,184.48h.9V186h.84v.73h-.84v3.43a.37.37,0,0,0,.18.37.78.78,0,0,0,.35.05h.14l.17,0v.71a1.65,1.65,0,0,1-.32.06l-.35,0a1,1,0,0,1-.84-.32,1.37,1.37,0,0,1-.23-.82v-3.48h-.71V186h.71Z"/><path class="cls-1" d="M33.35,185.94v3.5a1.56,1.56,0,0,0,.12.66.87.87,0,0,0,.86.47,1.2,1.2,0,0,0,1.22-.83,3.28,3.28,0,0,0,.18-1.21v-2.59h.88v5.26h-.83v-.77a1.58,1.58,0,0,1-.42.5,1.8,1.8,0,0,1-1.21.42,1.55,1.55,0,0,1-1.5-.75,2.23,2.23,0,0,1-.22-1.08v-3.58Z"/><path class="cls-1" d="M38.09,185.94h.84v.91a2.07,2.07,0,0,1,.51-.65,1.31,1.31,0,0,1,.92-.38h.09l.2,0v.93l-.14,0h-.15a1.27,1.27,0,0,0-1,.43,1.46,1.46,0,0,0-.35,1v3h-.89Z"/><path class="cls-1" d="M44.24,188a.46.46,0,0,0,.4-.26.77.77,0,0,0,.06-.34.72.72,0,0,0-.32-.66,1.77,1.77,0,0,0-.92-.2,1.17,1.17,0,0,0-1,.37,1.22,1.22,0,0,0-.21.62h-.82a1.51,1.51,0,0,1,.63-1.36,2.6,2.6,0,0,1,1.4-.38,2.84,2.84,0,0,1,1.51.36,1.19,1.19,0,0,1,.57,1.1v3a.38.38,0,0,0,.06.22.3.3,0,0,0,.24.08H46l.16,0v.65l-.32.08h-.29a.71.71,0,0,1-.66-.32,1.18,1.18,0,0,1-.16-.49,2.23,2.23,0,0,1-.77.62,2.46,2.46,0,0,1-1.12.26,1.65,1.65,0,0,1-1.19-.45,1.46,1.46,0,0,1-.47-1.11,1.42,1.42,0,0,1,.46-1.13,2.2,2.2,0,0,1,1.2-.5Zm-1.86,2.39a1,1,0,0,0,.66.22,2.06,2.06,0,0,0,.9-.22,1.22,1.22,0,0,0,.74-1.17v-.71a1.66,1.66,0,0,1-.42.17,3,3,0,0,1-.5.1l-.53.07a2,2,0,0,0-.72.2.77.77,0,0,0-.41.73A.73.73,0,0,0,42.38,190.41Z"/><path class="cls-1" d="M53.06,186.08a2,2,0,0,1,.79.68,2.22,2.22,0,0,1,.35.93,5.47,5.47,0,0,1,.08,1.16H50.46a2.27,2.27,0,0,0,.37,1.29,1.27,1.27,0,0,0,1.09.48,1.4,1.4,0,0,0,1.1-.46,1.49,1.49,0,0,0,.32-.61h.87a1.78,1.78,0,0,1-.23.64,2.24,2.24,0,0,1-.43.58,2.09,2.09,0,0,1-1,.54,3.14,3.14,0,0,1-.72.07,2.17,2.17,0,0,1-1.65-.71,2.8,2.8,0,0,1-.68-2,3.06,3.06,0,0,1,.68-2.06,2.25,2.25,0,0,1,1.79-.79A2.45,2.45,0,0,1,53.06,186.08Zm.31,2.07a2.2,2.2,0,0,0-.24-.92,1.28,1.28,0,0,0-1.21-.64,1.33,1.33,0,0,0-1,.44,1.65,1.65,0,0,0-.43,1.12Z"/><path class="cls-1" d="M55.4,185.93h.88v.75a2.67,2.67,0,0,1,.57-.56,1.7,1.7,0,0,1,1-.3,1.58,1.58,0,0,1,1,.3,1.49,1.49,0,0,1,.39.53,1.89,1.89,0,0,1,.7-.63,1.85,1.85,0,0,1,.89-.2,1.45,1.45,0,0,1,1.45.76,2.66,2.66,0,0,1,.2,1.11v3.5h-.92v-3.65a.83.83,0,0,0-.26-.72,1,1,0,0,0-.64-.2,1.29,1.29,0,0,0-.9.35,1.52,1.52,0,0,0-.37,1.16v3.06h-.9v-3.44a1.69,1.69,0,0,0-.13-.78.76.76,0,0,0-.75-.37,1.27,1.27,0,0,0-.91.39,1.89,1.89,0,0,0-.41,1.41v2.79H55.4Z"/><path class="cls-1" d="M66.58,185.93h.87v.75a3,3,0,0,1,.57-.57,1.73,1.73,0,0,1,1-.3,1.56,1.56,0,0,1,1,.31,1.72,1.72,0,0,1,.39.52,1.8,1.8,0,0,1,1.59-.83,1.45,1.45,0,0,1,1.44.77,2.44,2.44,0,0,1,.21,1.11v3.5h-.92v-3.66a.86.86,0,0,0-.26-.72,1.05,1.05,0,0,0-.64-.19,1.24,1.24,0,0,0-.9.35,1.53,1.53,0,0,0-.38,1.16v3.06h-.89v-3.43a1.86,1.86,0,0,0-.12-.78.79.79,0,0,0-.76-.37,1.31,1.31,0,0,0-.91.39,1.89,1.89,0,0,0-.41,1.4v2.79h-.89Z"/><path class="cls-1" d="M78.77,186.45a2.64,2.64,0,0,1,.7,2,3.42,3.42,0,0,1-.61,2.1,2.21,2.21,0,0,1-1.91.83,2.13,2.13,0,0,1-1.71-.73,2.88,2.88,0,0,1-.64-2,3.12,3.12,0,0,1,.67-2.11,2.23,2.23,0,0,1,1.79-.79A2.35,2.35,0,0,1,78.77,186.45Zm-.55,3.5a3.31,3.31,0,0,0,.33-1.48,2.61,2.61,0,0,0-.24-1.2,1.31,1.31,0,0,0-1.27-.73,1.28,1.28,0,0,0-1.17.62,3,3,0,0,0-.36,1.5,2.42,2.42,0,0,0,.37,1.39,1.25,1.25,0,0,0,1.15.56A1.2,1.2,0,0,0,78.22,190Z"/><path class="cls-1" d="M81,185.92l1.41,4.29,1.46-4.29h1l-2,5.26h-.94l-2-5.27Z"/><path class="cls-1" d="M85.58,184h.9v1h-.9Zm0,2h.89v5.23h-.9Z"/><path class="cls-1" d="M87.82,185.92h.88v.75a2.54,2.54,0,0,1,.57-.57,1.7,1.7,0,0,1,1-.3,1.54,1.54,0,0,1,1,.31,1.72,1.72,0,0,1,.39.52,1.83,1.83,0,0,1,1.59-.83,1.45,1.45,0,0,1,1.44.77,2.44,2.44,0,0,1,.21,1.11v3.5H94v-3.66a.86.86,0,0,0-.26-.72,1.05,1.05,0,0,0-.64-.19,1.24,1.24,0,0,0-.9.35,1.52,1.52,0,0,0-.37,1.16v3.06h-.9v-3.43a1.83,1.83,0,0,0-.13-.78.78.78,0,0,0-.75-.37,1.27,1.27,0,0,0-.91.39,1.86,1.86,0,0,0-.41,1.4v2.79h-.89Z"/><path class="cls-1" d="M99.45,186.06a2,2,0,0,1,.8.68,2.53,2.53,0,0,1,.35.93,6.25,6.25,0,0,1,.08,1.16H96.85a2.27,2.27,0,0,0,.38,1.29,1.24,1.24,0,0,0,1.08.48,1.38,1.38,0,0,0,1.1-.46,1.64,1.64,0,0,0,.33-.61h.86a1.68,1.68,0,0,1-.22.64,2.26,2.26,0,0,1-.44.58,2,2,0,0,1-1,.54,3.11,3.11,0,0,1-.71.07,2.2,2.2,0,0,1-1.66-.71,2.8,2.8,0,0,1-.68-2,3,3,0,0,1,.69-2.06,2.23,2.23,0,0,1,1.78-.79A2.45,2.45,0,0,1,99.45,186.06Zm.32,2.07a2.35,2.35,0,0,0-.25-.92,1.26,1.26,0,0,0-1.2-.64,1.35,1.35,0,0,0-1,.44,1.7,1.7,0,0,0-.43,1.12Z"/><path class="cls-1" d="M101.8,185.91h.84v.75a2.26,2.26,0,0,1,.79-.66,2,2,0,0,1,.93-.2,1.53,1.53,0,0,1,1.51.78,2.8,2.8,0,0,1,.22,1.22v3.37h-.9v-3.32a1.75,1.75,0,0,0-.15-.78.86.86,0,0,0-.85-.49,1.56,1.56,0,0,0-.52.07,1.26,1.26,0,0,0-.63.43,1.2,1.2,0,0,0-.29.54,3.22,3.22,0,0,0-.07.79v2.76h-.88Z"/><path class="cls-1" d="M107.57,184.44h.89v1.47h.84v.72h-.84v3.44a.39.39,0,0,0,.18.37,1,1,0,0,0,.35.05h.13l.18,0v.7l-.32.07-.36,0a1,1,0,0,1-.84-.32,1.45,1.45,0,0,1-.22-.82v-3.48h-.71v-.73h.71Z"/><path class="cls-1" d="M114,186.44a2.62,2.62,0,0,1,.7,2,3.44,3.44,0,0,1-.62,2.1,2.2,2.2,0,0,1-1.9.83,2.13,2.13,0,0,1-1.71-.73,2.88,2.88,0,0,1-.64-2,3.11,3.11,0,0,1,.67-2.11,2.2,2.2,0,0,1,1.79-.79A2.31,2.31,0,0,1,114,186.44Zm-.55,3.49a3.25,3.25,0,0,0,.33-1.48,2.67,2.67,0,0,0-.24-1.19,1.3,1.3,0,0,0-1.27-.73,1.27,1.27,0,0,0-1.17.62,2.91,2.91,0,0,0-.36,1.49,2.53,2.53,0,0,0,.36,1.4,1.3,1.3,0,0,0,1.16.56A1.19,1.19,0,0,0,113.45,189.93Z"/></g></g></svg>